<svg width="64" height="64" viewBox="0 0 64 64" fill="none" xmlns="http://www.w3.org/2000/svg">
<path d="M28 10C22.8577 10 17.8309 11.5249 13.5552 14.3818C9.27951 17.2387 5.94702 21.2994 3.97914 26.0502C2.01127 30.8011 1.49638 36.0288 2.49959 41.0723C3.50281 46.1159 5.97907 50.7486 9.61524 54.3848C13.2514 58.0209 17.8842 60.4972 22.9277 61.5004C27.9712 62.5036 33.1989 61.9887 37.9498 60.0209C42.7007 58.053 46.7613 54.7205 49.6182 50.4448C52.4751 46.1691 54 41.1423 54 36H28V10Z" fill="#D22FC6"/>
<path d="M36 2V28H62C62 24.5856 61.3275 21.2047 60.0209 18.0502C58.7142 14.8958 56.7991 12.0295 54.3848 9.61522C51.9705 7.2009 49.1042 5.28575 45.9498 3.97913C42.7953 2.67251 39.4144 2 36 2Z" fill="#D22FC6"/>
</svg>
