<svg width="64" height="64" viewBox="0 0 64 64" fill="none" xmlns="http://www.w3.org/2000/svg">
<path d="M25.7 40.5L18.5 33.3C17.0477 31.8478 16.1358 29.9425 15.9157 27.9005C15.6955 25.8585 16.1805 23.8026 17.2899 22.0743C18.3993 20.3459 20.0666 19.0489 22.0147 18.3988C23.9629 17.7486 26.0749 17.7843 28 18.5V2H14C13.4696 2 12.9609 2.21071 12.5858 2.58579C12.2107 2.96086 12 3.46957 12 4V42C12 42.5304 12.2107 43.0391 12.5858 43.4142C12.9609 43.7893 13.4696 44 14 44H25.8C25.6497 42.8396 25.6162 41.6671 25.7 40.5ZM40 4C40 3.46957 39.7893 2.96086 39.4142 2.58579C39.0391 2.21071 38.5304 2 38 2H32V21.3L40 29.3V4Z" fill="#D22FC6"/>
<path d="M48.7004 28.7L44.0004 23.9V36.8L42.8004 37.8L28.4004 23.5C27.9706 22.9269 27.4226 22.4529 26.7937 22.11C26.1647 21.7671 25.4694 21.5634 24.7548 21.5126C24.0403 21.4618 23.3232 21.5652 22.652 21.8156C21.9809 22.0661 21.3714 22.4579 20.8649 22.9645C20.3583 23.471 19.9665 24.0805 19.716 24.7516C19.4655 25.4228 19.3622 26.1399 19.413 26.8544C19.4638 27.569 19.6675 28.2643 20.0104 28.8933C20.3533 29.5222 20.8273 30.0702 21.4004 30.5L30.0004 39.1C29.2602 42.0909 29.6149 45.248 31.0004 48H22.3004C22.7659 50.682 23.7879 53.2368 25.3004 55.5C28.1004 60 28.0004 61.3 28.0004 62H52.0004C52.0004 62 52.1004 48.6 52.1004 40C52.0004 34.2 51.2004 31.1 48.7004 28.7Z" fill="#D22FC6"/>
</svg>
